<svg xmlns="http://www.w3.org/2000/svg" xmlns:xlink="http://www.w3.org/1999/xlink" width="512" height="512" viewBox="0 0 512 512" fill="none"><defs><rect id="path_0" x="0" y="0" width="512" height="512" /><filter id="filter_4" x="0" y="0" width="460.39592233009705" height="461.1613106796116" filterUnits="userSpaceOnUse" color-interpolation-filters="sRGB"><feFlood flood-opacity="0" result="BackgroundImageFix"/>
          <feColorMatrix in="SourceAlpha" type="matrix" values="0 0 0 0 0 0 0 0 0 0 0 0 0 0 0 0 0 0 127 0"/>
          <feOffset dx="4" dy="4"/>
          <feGaussianBlur stdDeviation="0"/>
          <feColorMatrix type="matrix" values="0 0 0 0 0 0 0 0 0 0 0 0 0 0 0 0 0 0 0.25 0"/>
          <feBlend mode="normal" in2="BackgroundImageFix" result="effect1_Shadow"/>
          <feBlend mode="normal" in="SourceGraphic" in2="effect1_Shadow" result="shape"/></filter><linearGradient id="linear_0" x1="13.306999999999999%" y1="11.026%" x2="90.484%" y2="85.012%" gradientUnits="objectBoundingBox"><stop offset="0" stop-color="#108230" stop-opacity="1" /><stop offset="1" stop-color="#006B1E" stop-opacity="1" /></linearGradient><linearGradient id="linear_1" x1="11.867999999999999%" y1="10.440000000000001%" x2="88.132%" y2="89.732%" gradientUnits="objectBoundingBox"><stop offset="0" stop-color="#49BF1B" stop-opacity="1" /><stop offset="1" stop-color="#429621" stop-opacity="1" /></linearGradient><linearGradient id="linear_2" x1="11.867999999999999%" y1="10.440000000000001%" x2="88.132%" y2="89.732%" gradientUnits="objectBoundingBox"><stop offset="0" stop-color="#226B05" stop-opacity="1" /><stop offset="0.9931" stop-color="#48B31E" stop-opacity="1" /></linearGradient><filter id="filter_42" x="0.45536109736544894" y="0.4553610973654436" width="400.6695541769119" height="400.6695541769119" filterUnits="userSpaceOnUse" color-interpolation-filters="sRGB"><feFlood flood-opacity="0" result="BackgroundImageFix"/>
          <feBlend mode="normal" in="SourceGraphic" in2="BackgroundImageFix" result="shape"/>
          <feColorMatrix in="SourceAlpha" type="matrix" values="0 0 0 0 0 0 0 0 0 0 0 0 0 0 0 0 0 0 127 0" result="hardAlpha"/>
          <feOffset dx="0" dy="0"/>
          <feGaussianBlur stdDeviation="5"/>
          <feComposite in2="hardAlpha" operator="arithmetic" k2="-1" k3="1"/>
          <feColorMatrix type="matrix" values="0 0 0 0 0 0 0 0 0 0 0 0 0 0 0 0 0 0 0.16 0"/>
          <feBlend mode="normal" in2="shape" result="effect1_Shadow"/></filter><linearGradient id="linear_3" x1="10.145%" y1="12.148%" x2="88.14999999999999%" y2="87.852%" gradientUnits="objectBoundingBox"><stop offset="0" stop-color="#FBFF08" stop-opacity="1" /><stop offset="0.8611" stop-color="#FAE22D" stop-opacity="1" /><stop offset="1" stop-color="#FFF12B" stop-opacity="1" /></linearGradient><filter id="filter_46" x="-0.5705787534633657" y="-0.570578753463387" width="324.12030913112676" height="324.12030913112676" filterUnits="userSpaceOnUse" color-interpolation-filters="sRGB"><feFlood flood-opacity="0" result="BackgroundImageFix"/>
          <feColorMatrix in="SourceAlpha" type="matrix" values="0 0 0 0 0 0 0 0 0 0 0 0 0 0 0 0 0 0 127 0"/>
          <feOffset dx="3" dy="3"/>
          <feGaussianBlur stdDeviation="0"/>
          <feColorMatrix type="matrix" values="0 0 0 0 0 0 0 0 0 0 0 0 0 0 0 0 0 0 0.1 0"/>
          <feBlend mode="normal" in2="BackgroundImageFix" result="effect1_Shadow"/>
          <feBlend mode="normal" in="SourceGraphic" in2="effect1_Shadow" result="shape"/></filter><linearGradient id="linear_4" x1="11.935%" y1="10.784%" x2="84.868%" y2="91.77300000000001%" gradientUnits="objectBoundingBox"><stop offset="0" stop-color="#FFD500" stop-opacity="1" /><stop offset="1" stop-color="#FFC400" stop-opacity="1" /></linearGradient><filter id="filter_54" x="98" y="140.76383495145623" width="300" height="145.00000000000003" filterUnits="userSpaceOnUse" color-interpolation-filters="sRGB"><feFlood flood-opacity="0" result="BackgroundImageFix"/>
          <feColorMatrix in="SourceAlpha" type="matrix" values="0 0 0 0 0 0 0 0 0 0 0 0 0 0 0 0 0 0 127 0"/>
          <feOffset dx="4" dy="4"/>
          <feGaussianBlur stdDeviation="0"/>
          <feColorMatrix type="matrix" values="0 0 0 0 0.9803921568627451 0 0 0 0 0.8313725490196079 0 0 0 0 0.0784313725490196 0 0 0 1 0"/>
          <feBlend mode="normal" in2="BackgroundImageFix" result="effect1_Shadow"/>
          <feBlend mode="normal" in="SourceGraphic" in2="effect1_Shadow" result="shape"/></filter></defs><g opacity="1" transform="translate(0 0)  rotate(0 256 256)"><mask id="bg-mask-0" fill="white"><use xlink:href="#path_0"></use></mask><g mask="url(#bg-mask-0)" ><path id="background" fill-rule="evenodd" style="fill:#415EB3" transform="translate(0 0)  rotate(0 256 256)" opacity="1" d="M256,0C114.62,0 0,114.62 0,256C0,397.38 114.62,512 256,512C397.38,512 512,397.38 512,256C512,114.62 397.38,0 256,0Z " /><g opacity="1" transform="translate(26 25.236165048543697)  rotate(0 230.19796116504853 230.5806553398058)"><g id="undefined" filter="url(#filter_4)"></g><g opacity="1" transform="translate(162.63 324.14)  rotate(-90 67.19796116504854 69.8233495145631)"><path id="pin.2" fill-rule="evenodd" style="fill:#FADD00" transform="translate(0 57.44)  rotate(0 63.067961165048544 12.388349514563107)" opacity="1" d="M113.75,0C113.75,0 113.75,0 113.75,0a12.39,12.39 0 0,1 12.39,12.39C126.14,12.39 126.14,12.39 126.14,12.39 L126.13592233009709,12.39C126.13592233009709,12.39 126.13592233009709,12.39 126.14,12.39a12.388349514563107,12.388349514563107 0 0,1 -12.39,12.39C113.75,24.776699029126213 113.75,24.776699029126213 113.75,24.776699029126213 L12.39,24.776699029126213C12.39,24.776699029126213 12.39,24.776699029126213 12.39,24.78a12.39,12.39 0 0,1 -12.39,-12.39C0,12.39 0,12.39 0 12.39 L0,12.39C0,12.39 0,12.39 0,12.39a12.39,12.39 0 0,1 12.39,-12.39C12.39,0 12.39,0 12.39,0Z " /><path  id="pin.2" style="stroke:#E8FF3D; stroke-width:4; stroke-opacity:0.4; stroke-dasharray:0 0" transform="translate(0 57.44)  rotate(0 63.067961165048544 12.388349514563107)" d="M113.75,0C113.75,0 113.75,0 113.75,0a12.39,12.39 0 0,1 12.39,12.39C126.14,12.39 126.14,12.39 126.14,12.39 L126.13592233009709,12.39C126.13592233009709,12.39 126.13592233009709,12.39 126.14,12.39a12.388349514563107,12.388349514563107 0 0,1 -12.39,12.39C113.75,24.776699029126213 113.75,24.776699029126213 113.75,24.776699029126213 L12.39,24.776699029126213C12.39,24.776699029126213 12.39,24.776699029126213 12.39,24.78a12.39,12.39 0 0,1 -12.39,-12.39C0,12.39 0,12.39 0 12.39 L0,12.39C0,12.39 0,12.39 0,12.39a12.39,12.39 0 0,1 12.39,-12.39C12.39,0 12.39,0 12.39,0Z " /><path id="pin.1" fill-rule="evenodd" style="fill:#FADD00" transform="translate(7.26 114.87)  rotate(0 63.067961165048544 12.388349514563107)" opacity="1" d="M113.75,0C113.75,0 113.75,0 113.75,0a12.39,12.39 0 0,1 12.39,12.39C126.14,12.39 126.14,12.39 126.14,12.39 L126.13592233009709,12.39C126.13592233009709,12.39 126.13592233009709,12.39 126.14,12.39a12.388349514563107,12.388349514563107 0 0,1 -12.39,12.39C113.75,24.776699029126213 113.75,24.776699029126213 113.75,24.776699029126213 L12.39,24.776699029126213C12.39,24.776699029126213 12.39,24.776699029126213 12.39,24.78a12.39,12.39 0 0,1 -12.39,-12.39C0,12.39 0,12.39 0 12.39 L0,12.39C0,12.39 0,12.39 0,12.39a12.39,12.39 0 0,1 12.39,-12.39C12.39,0 12.39,0 12.39,0Z " /><path  id="pin.1" style="stroke:#E8FF3D; stroke-width:4; stroke-opacity:0.4; stroke-dasharray:0 0" transform="translate(7.26 114.87)  rotate(0 63.067961165048544 12.388349514563107)" d="M113.75,0C113.75,0 113.75,0 113.75,0a12.39,12.39 0 0,1 12.39,12.39C126.14,12.39 126.14,12.39 126.14,12.39 L126.13592233009709,12.39C126.13592233009709,12.39 126.13592233009709,12.39 126.14,12.39a12.388349514563107,12.388349514563107 0 0,1 -12.39,12.39C113.75,24.776699029126213 113.75,24.776699029126213 113.75,24.776699029126213 L12.39,24.776699029126213C12.39,24.776699029126213 12.39,24.776699029126213 12.39,24.78a12.39,12.39 0 0,1 -12.39,-12.39C0,12.39 0,12.39 0 12.39 L0,12.39C0,12.39 0,12.39 0,12.39a12.39,12.39 0 0,1 12.39,-12.39C12.39,0 12.39,0 12.39,0Z " /><path id="pin.0" fill-rule="evenodd" style="fill:#FADD00" transform="translate(7.26 0)  rotate(0 63.067961165048544 12.388349514563107)" opacity="1" d="M113.75,0C113.75,0 113.75,0 113.75,0a12.39,12.39 0 0,1 12.39,12.39C126.14,12.39 126.14,12.39 126.14,12.39 L126.13592233009709,12.39C126.13592233009709,12.39 126.13592233009709,12.39 126.14,12.39a12.388349514563107,12.388349514563107 0 0,1 -12.39,12.39C113.75,24.776699029126213 113.75,24.776699029126213 113.75,24.776699029126213 L12.39,24.776699029126213C12.39,24.776699029126213 12.39,24.776699029126213 12.39,24.78a12.39,12.39 0 0,1 -12.39,-12.39C0,12.39 0,12.39 0 12.39 L0,12.39C0,12.39 0,12.39 0,12.39a12.39,12.39 0 0,1 12.39,-12.39C12.39,0 12.39,0 12.39,0Z " /><path  id="pin.0" style="stroke:#E8FF3D; stroke-width:4; stroke-opacity:0.4; stroke-dasharray:0 0" transform="translate(7.26 0)  rotate(0 63.067961165048544 12.388349514563107)" d="M113.75,0C113.75,0 113.75,0 113.75,0a12.39,12.39 0 0,1 12.39,12.39C126.14,12.39 126.14,12.39 126.14,12.39 L126.13592233009709,12.39C126.13592233009709,12.39 126.13592233009709,12.39 126.14,12.39a12.388349514563107,12.388349514563107 0 0,1 -12.39,12.39C113.75,24.776699029126213 113.75,24.776699029126213 113.75,24.776699029126213 L12.39,24.776699029126213C12.39,24.776699029126213 12.39,24.776699029126213 12.39,24.78a12.39,12.39 0 0,1 -12.39,-12.39C0,12.39 0,12.39 0 12.39 L0,12.39C0,12.39 0,12.39 0,12.39a12.39,12.39 0 0,1 12.39,-12.39C12.39,0 12.39,0 12.39,0Z " /></g><g opacity="1" transform="translate(326 160.7638349514562)  rotate(-180 67.19796116504854 69.8233495145631)"><path id="pin.2" fill-rule="evenodd" style="fill:#FADD00" transform="translate(0 57.44)  rotate(0 63.067961165048544 12.388349514563107)" opacity="1" d="M113.75,0C113.75,0 113.75,0 113.75,0a12.39,12.39 0 0,1 12.39,12.39C126.14,12.39 126.14,12.39 126.14,12.39 L126.13592233009709,12.39C126.13592233009709,12.39 126.13592233009709,12.39 126.14,12.39a12.388349514563107,12.388349514563107 0 0,1 -12.39,12.39C113.75,24.776699029126213 113.75,24.776699029126213 113.75,24.776699029126213 L12.39,24.776699029126213C12.39,24.776699029126213 12.39,24.776699029126213 12.39,24.78a12.39,12.39 0 0,1 -12.39,-12.39C0,12.39 0,12.39 0 12.39 L0,12.39C0,12.39 0,12.39 0,12.39a12.39,12.39 0 0,1 12.39,-12.39C12.39,0 12.39,0 12.39,0Z " /><path  id="pin.2" style="stroke:#E8FF3D; stroke-width:4; stroke-opacity:0.4; stroke-dasharray:0 0" transform="translate(0 57.44)  rotate(0 63.067961165048544 12.388349514563107)" d="M113.75,0C113.75,0 113.75,0 113.75,0a12.39,12.39 0 0,1 12.39,12.39C126.14,12.39 126.14,12.39 126.14,12.39 L126.13592233009709,12.39C126.13592233009709,12.39 126.13592233009709,12.39 126.14,12.39a12.388349514563107,12.388349514563107 0 0,1 -12.39,12.39C113.75,24.776699029126213 113.75,24.776699029126213 113.75,24.776699029126213 L12.39,24.776699029126213C12.39,24.776699029126213 12.39,24.776699029126213 12.39,24.78a12.39,12.39 0 0,1 -12.39,-12.39C0,12.39 0,12.39 0 12.39 L0,12.39C0,12.39 0,12.39 0,12.39a12.39,12.39 0 0,1 12.39,-12.39C12.39,0 12.39,0 12.39,0Z " /><path id="pin.1" fill-rule="evenodd" style="fill:#FADD00" transform="translate(7.26 114.87)  rotate(0 63.067961165048544 12.388349514563107)" opacity="1" d="M113.75,0C113.75,0 113.75,0 113.75,0a12.39,12.39 0 0,1 12.39,12.39C126.14,12.39 126.14,12.39 126.14,12.39 L126.13592233009709,12.39C126.13592233009709,12.39 126.13592233009709,12.39 126.14,12.39a12.388349514563107,12.388349514563107 0 0,1 -12.39,12.39C113.75,24.776699029126213 113.75,24.776699029126213 113.75,24.776699029126213 L12.39,24.776699029126213C12.39,24.776699029126213 12.39,24.776699029126213 12.39,24.78a12.39,12.39 0 0,1 -12.39,-12.39C0,12.39 0,12.39 0 12.39 L0,12.39C0,12.39 0,12.39 0,12.39a12.39,12.39 0 0,1 12.39,-12.39C12.39,0 12.39,0 12.39,0Z " /><path  id="pin.1" style="stroke:#E8FF3D; stroke-width:4; stroke-opacity:0.4; stroke-dasharray:0 0" transform="translate(7.26 114.87)  rotate(0 63.067961165048544 12.388349514563107)" d="M113.75,0C113.75,0 113.75,0 113.75,0a12.39,12.39 0 0,1 12.39,12.39C126.14,12.39 126.14,12.39 126.14,12.39 L126.13592233009709,12.39C126.13592233009709,12.39 126.13592233009709,12.39 126.14,12.39a12.388349514563107,12.388349514563107 0 0,1 -12.39,12.39C113.75,24.776699029126213 113.75,24.776699029126213 113.75,24.776699029126213 L12.39,24.776699029126213C12.39,24.776699029126213 12.39,24.776699029126213 12.39,24.78a12.39,12.39 0 0,1 -12.39,-12.39C0,12.39 0,12.39 0 12.39 L0,12.39C0,12.39 0,12.39 0,12.39a12.39,12.39 0 0,1 12.39,-12.39C12.39,0 12.39,0 12.39,0Z " /><path id="pin.0" fill-rule="evenodd" style="fill:#FADD00" transform="translate(7.26 0)  rotate(0 63.067961165048544 12.388349514563107)" opacity="1" d="M113.75,0C113.75,0 113.75,0 113.75,0a12.39,12.39 0 0,1 12.39,12.39C126.14,12.39 126.14,12.39 126.14,12.39 L126.13592233009709,12.39C126.13592233009709,12.39 126.13592233009709,12.39 126.14,12.39a12.388349514563107,12.388349514563107 0 0,1 -12.39,12.39C113.75,24.776699029126213 113.75,24.776699029126213 113.75,24.776699029126213 L12.39,24.776699029126213C12.39,24.776699029126213 12.39,24.776699029126213 12.39,24.78a12.39,12.39 0 0,1 -12.39,-12.39C0,12.39 0,12.39 0 12.39 L0,12.39C0,12.39 0,12.39 0,12.39a12.39,12.39 0 0,1 12.39,-12.39C12.39,0 12.39,0 12.39,0Z " /><path  id="pin.0" style="stroke:#E8FF3D; stroke-width:4; stroke-opacity:0.4; stroke-dasharray:0 0" transform="translate(7.26 0)  rotate(0 63.067961165048544 12.388349514563107)" d="M113.75,0C113.75,0 113.75,0 113.75,0a12.39,12.39 0 0,1 12.39,12.39C126.14,12.39 126.14,12.39 126.14,12.39 L126.13592233009709,12.39C126.13592233009709,12.39 126.13592233009709,12.39 126.14,12.39a12.388349514563107,12.388349514563107 0 0,1 -12.39,12.39C113.75,24.776699029126213 113.75,24.776699029126213 113.75,24.776699029126213 L12.39,24.776699029126213C12.39,24.776699029126213 12.39,24.776699029126213 12.39,24.78a12.39,12.39 0 0,1 -12.39,-12.39C0,12.39 0,12.39 0 12.39 L0,12.39C0,12.39 0,12.39 0,12.39a12.39,12.39 0 0,1 12.39,-12.39C12.39,0 12.39,0 12.39,0Z " /></g><g opacity="1" transform="translate(163 -2.625388349514566)  rotate(90 67.19796116504854 69.8233495145631)"><path id="pin.2" fill-rule="evenodd" style="fill:#FADD00" transform="translate(0 57.44)  rotate(0 63.067961165048544 12.388349514563107)" opacity="1" d="M113.75,0C113.75,0 113.75,0 113.75,0a12.39,12.39 0 0,1 12.39,12.39C126.14,12.39 126.14,12.39 126.14,12.39 L126.13592233009709,12.39C126.13592233009709,12.39 126.13592233009709,12.39 126.14,12.39a12.388349514563107,12.388349514563107 0 0,1 -12.39,12.39C113.75,24.776699029126213 113.75,24.776699029126213 113.75,24.776699029126213 L12.39,24.776699029126213C12.39,24.776699029126213 12.39,24.776699029126213 12.39,24.78a12.39,12.39 0 0,1 -12.39,-12.39C0,12.39 0,12.39 0 12.39 L0,12.39C0,12.39 0,12.39 0,12.39a12.39,12.39 0 0,1 12.39,-12.39C12.39,0 12.39,0 12.39,0Z " /><path  id="pin.2" style="stroke:#E8FF3D; stroke-width:4; stroke-opacity:0.4; stroke-dasharray:0 0" transform="translate(0 57.44)  rotate(0 63.067961165048544 12.388349514563107)" d="M113.75,0C113.75,0 113.75,0 113.75,0a12.39,12.39 0 0,1 12.39,12.39C126.14,12.39 126.14,12.39 126.14,12.39 L126.13592233009709,12.39C126.13592233009709,12.39 126.13592233009709,12.39 126.14,12.39a12.388349514563107,12.388349514563107 0 0,1 -12.39,12.39C113.75,24.776699029126213 113.75,24.776699029126213 113.75,24.776699029126213 L12.39,24.776699029126213C12.39,24.776699029126213 12.39,24.776699029126213 12.39,24.78a12.39,12.39 0 0,1 -12.39,-12.39C0,12.39 0,12.39 0 12.39 L0,12.39C0,12.39 0,12.39 0,12.39a12.39,12.39 0 0,1 12.39,-12.39C12.39,0 12.39,0 12.39,0Z " /><path id="pin.1" fill-rule="evenodd" style="fill:#FADD00" transform="translate(7.26 114.87)  rotate(0 63.067961165048544 12.388349514563107)" opacity="1" d="M113.75,0C113.75,0 113.75,0 113.75,0a12.39,12.39 0 0,1 12.39,12.39C126.14,12.39 126.14,12.39 126.14,12.39 L126.13592233009709,12.39C126.13592233009709,12.39 126.13592233009709,12.39 126.14,12.39a12.388349514563107,12.388349514563107 0 0,1 -12.39,12.39C113.75,24.776699029126213 113.75,24.776699029126213 113.75,24.776699029126213 L12.39,24.776699029126213C12.39,24.776699029126213 12.39,24.776699029126213 12.39,24.78a12.39,12.39 0 0,1 -12.39,-12.39C0,12.39 0,12.39 0 12.39 L0,12.39C0,12.39 0,12.39 0,12.39a12.39,12.39 0 0,1 12.39,-12.39C12.39,0 12.39,0 12.39,0Z " /><path  id="pin.1" style="stroke:#E8FF3D; stroke-width:4; stroke-opacity:0.4; stroke-dasharray:0 0" transform="translate(7.26 114.87)  rotate(0 63.067961165048544 12.388349514563107)" d="M113.75,0C113.75,0 113.75,0 113.75,0a12.39,12.39 0 0,1 12.39,12.39C126.14,12.39 126.14,12.39 126.14,12.39 L126.13592233009709,12.39C126.13592233009709,12.39 126.13592233009709,12.39 126.14,12.39a12.388349514563107,12.388349514563107 0 0,1 -12.39,12.39C113.75,24.776699029126213 113.75,24.776699029126213 113.75,24.776699029126213 L12.39,24.776699029126213C12.39,24.776699029126213 12.39,24.776699029126213 12.39,24.78a12.39,12.39 0 0,1 -12.39,-12.39C0,12.39 0,12.39 0 12.39 L0,12.39C0,12.39 0,12.39 0,12.39a12.39,12.39 0 0,1 12.39,-12.39C12.39,0 12.39,0 12.39,0Z " /><path id="pin.0" fill-rule="evenodd" style="fill:#FADD00" transform="translate(7.26 0)  rotate(0 63.067961165048544 12.388349514563107)" opacity="1" d="M113.75,0C113.75,0 113.75,0 113.75,0a12.39,12.39 0 0,1 12.39,12.39C126.14,12.39 126.14,12.39 126.14,12.39 L126.13592233009709,12.39C126.13592233009709,12.39 126.13592233009709,12.39 126.14,12.39a12.388349514563107,12.388349514563107 0 0,1 -12.39,12.39C113.75,24.776699029126213 113.75,24.776699029126213 113.75,24.776699029126213 L12.39,24.776699029126213C12.39,24.776699029126213 12.39,24.776699029126213 12.39,24.78a12.39,12.39 0 0,1 -12.39,-12.39C0,12.39 0,12.39 0 12.39 L0,12.39C0,12.39 0,12.39 0,12.39a12.39,12.39 0 0,1 12.39,-12.39C12.39,0 12.39,0 12.39,0Z " /><path  id="pin.0" style="stroke:#E8FF3D; stroke-width:4; stroke-opacity:0.4; stroke-dasharray:0 0" transform="translate(7.26 0)  rotate(0 63.067961165048544 12.388349514563107)" d="M113.75,0C113.75,0 113.75,0 113.75,0a12.39,12.39 0 0,1 12.39,12.39C126.14,12.39 126.14,12.39 126.14,12.39 L126.13592233009709,12.39C126.13592233009709,12.39 126.13592233009709,12.39 126.14,12.39a12.388349514563107,12.388349514563107 0 0,1 -12.39,12.39C113.75,24.776699029126213 113.75,24.776699029126213 113.75,24.776699029126213 L12.39,24.776699029126213C12.39,24.776699029126213 12.39,24.776699029126213 12.39,24.78a12.39,12.39 0 0,1 -12.39,-12.39C0,12.39 0,12.39 0 12.39 L0,12.39C0,12.39 0,12.39 0,12.39a12.39,12.39 0 0,1 12.39,-12.39C12.39,0 12.39,0 12.39,0Z " /></g><g opacity="1" transform="translate(0 160.93859223300962)  rotate(0 67.19796116504854 69.8233495145631)"><path id="pin.2" fill-rule="evenodd" style="fill:#FADD00" transform="translate(0 57.44)  rotate(0 63.067961165048544 12.388349514563107)" opacity="1" d="M113.75,0C113.75,0 113.75,0 113.75,0a12.39,12.39 0 0,1 12.39,12.39C126.14,12.39 126.14,12.39 126.14,12.39 L126.13592233009709,12.39C126.13592233009709,12.39 126.13592233009709,12.39 126.14,12.39a12.388349514563107,12.388349514563107 0 0,1 -12.39,12.39C113.75,24.776699029126213 113.75,24.776699029126213 113.75,24.776699029126213 L12.39,24.776699029126213C12.39,24.776699029126213 12.39,24.776699029126213 12.39,24.78a12.39,12.39 0 0,1 -12.39,-12.39C0,12.39 0,12.39 0 12.39 L0,12.39C0,12.39 0,12.39 0,12.39a12.39,12.39 0 0,1 12.39,-12.39C12.39,0 12.39,0 12.39,0Z " /><rect  id="pin.2" style="stroke:#E8FF3D; stroke-width:4; stroke-opacity:0.4; stroke-dasharray:0 0" transform="translate(0 57.44)  rotate(0 63.067961165048544 12.388349514563107)" x="2" y="2" rx="42"  width="122.13592233009709" height="20.776699029126213" /><path id="pin.1" fill-rule="evenodd" style="fill:#FADD00" transform="translate(7.26 114.87)  rotate(0 63.067961165048544 12.388349514563107)" opacity="1" d="M113.75,0C113.75,0 113.75,0 113.75,0a12.39,12.39 0 0,1 12.39,12.39C126.14,12.39 126.14,12.39 126.14,12.39 L126.13592233009709,12.39C126.13592233009709,12.39 126.13592233009709,12.39 126.14,12.39a12.388349514563107,12.388349514563107 0 0,1 -12.39,12.39C113.75,24.776699029126213 113.75,24.776699029126213 113.75,24.776699029126213 L12.39,24.776699029126213C12.39,24.776699029126213 12.39,24.776699029126213 12.39,24.78a12.39,12.39 0 0,1 -12.39,-12.39C0,12.39 0,12.39 0 12.39 L0,12.39C0,12.39 0,12.39 0,12.39a12.39,12.39 0 0,1 12.39,-12.39C12.39,0 12.39,0 12.39,0Z " /><rect  id="pin.1" style="stroke:#E8FF3D; stroke-width:4; stroke-opacity:0.4; stroke-dasharray:0 0" transform="translate(7.26 114.87)  rotate(0 63.067961165048544 12.388349514563107)" x="2" y="2" rx="42"  width="122.13592233009709" height="20.776699029126213" /><path id="pin.0" fill-rule="evenodd" style="fill:#FADD00" transform="translate(7.26 0)  rotate(0 63.067961165048544 12.388349514563107)" opacity="1" d="M113.75,0C113.75,0 113.75,0 113.75,0a12.39,12.39 0 0,1 12.39,12.39C126.14,12.39 126.14,12.39 126.14,12.39 L126.13592233009709,12.39C126.13592233009709,12.39 126.13592233009709,12.39 126.14,12.39a12.388349514563107,12.388349514563107 0 0,1 -12.39,12.39C113.75,24.776699029126213 113.75,24.776699029126213 113.75,24.776699029126213 L12.39,24.776699029126213C12.39,24.776699029126213 12.39,24.776699029126213 12.39,24.78a12.39,12.39 0 0,1 -12.39,-12.39C0,12.39 0,12.39 0 12.39 L0,12.39C0,12.39 0,12.39 0,12.39a12.39,12.39 0 0,1 12.39,-12.39C12.39,0 12.39,0 12.39,0Z " /><rect  id="pin.0" style="stroke:#E8FF3D; stroke-width:4; stroke-opacity:0.4; stroke-dasharray:0 0" transform="translate(7.26 0)  rotate(0 63.067961165048544 12.388349514563107)" x="2" y="2" rx="42"  width="122.13592233009709" height="20.776699029126213" /></g><g opacity="1" transform="translate(29 29.763834951456303)  rotate(0 201 201)"><path id="background" fill-rule="evenodd" fill="url(#linear_0)" transform="translate(0.0625198294553968 0.06251982945538259)  rotate(0 200.81366978776325 200.81366978776325)" opacity="1" d="M200.81,0C51.4,0 0,51.4 0,200.81C0,350.23 51.4,401.63 200.81,401.63C350.23,401.63 401.63,350.23 401.63,200.81C401.63,51.4 350.23,0 200.81,0Z " /><path id="background" style="stroke:url(#linear_1); stroke-width:12; stroke-opacity:100; stroke-dasharray:0 0" transform="translate(0.0625198294553968 0.06251982945538259)  rotate(0 200.81366978776325 200.81366978776325)" d="M200.81,0C51.4,0 0,51.4 0,200.81C0,350.23 51.4,401.63 200.81,401.63C350.23,401.63 401.63,350.23 401.63,200.81C401.63,51.4 350.23,0 200.81,0Z " /><g id="border" filter="url(#filter_42)"><path id="border" style="stroke:url(#linear_2); stroke-width:5; stroke-opacity:100; stroke-dasharray:0 0" transform="translate(10.455361097365449 10.455361097365444)  rotate(0 190.33477708845595 190.33477708845595)" d="M190.33,0C48.72,0 0,48.72 0,190.33C0,331.95 48.72,380.67 190.33,380.67C331.95,380.67 380.67,331.95 380.67,190.33C380.67,48.72 331.95,0 190.33,0Z " /></g></g><g opacity="1" transform="translate(68 68.76383495145627)  rotate(0 162 162)"><g id="background" filter="url(#filter_46)"><path id="background" fill-rule="evenodd" fill="url(#linear_3)" transform="translate(-0.5705787534633657 -0.570578753463387)  rotate(0 162.06015456556338 162.06015456556338)" opacity="1" d="M162.06,0C41.48,0 0,41.48 0,162.06C0,282.64 41.48,324.12 162.06,324.12C282.64,324.12 324.12,282.64 324.12,162.06C324.12,41.48 282.64,0 162.06,0Z " /></g><path id="border" style="stroke:url(#linear_4); stroke-width:16; stroke-opacity:100; stroke-dasharray:0 0" transform="translate(-0.5705787534633657 -0.570578753463387)  rotate(0 162.06015456556338 162.06015456556338)" d="M162.06,0C136.26,0 113.88,1.08 95.16,6.07L52.85,50.5L6.07,95.16C1.9,114.08 0,136.26 0,162.06C0,282.64 41.48,324.12 162.06,324.12C282.64,324.12 324.12,282.64 324.12,162.06C324.12,41.48 282.64,0 162.06,0Z " /><path id="corner" fill-rule="evenodd" style="fill:#FBFA0E" transform="translate(11.17291070780933 9.998561761682048)  rotate(0 42.27656206058174 42.86373653364537)" opacity="1" d="M84.55,69.73L84.55,0L0,85.73L68.55,85.73C77.39,85.73 84.55,78.57 84.55,69.73Z " /><path  id="corner" style="stroke:#FFD400; stroke-width:8; stroke-opacity:1; stroke-dasharray:0 0" transform="translate(11.17291070780933 9.998561761682048)  rotate(0 42.27656206058174 42.86373653364537)" d="M84.55,69.73L84.55,0L0,85.73L68.55,85.73C77.39,85.73 84.55,78.57 84.55,69.73Z " /></g><path id="line"  style="fill:#FFD400" transform="translate(116.9017146314696 296.9900285100754)  rotate(0 116.1512885076576 0.0005094445423878824)" opacity="1" d="M-1.09651e-05 2.5Q-0.122828 2.5 -0.245054 2.48796Q-0.367279 2.47592 -0.487736 2.45196Q-0.608194 2.428 -0.725722 2.39235Q-0.843251 2.3567 -0.956719 2.30969Q-1.07019 2.26269 -1.1785 2.2048Q-1.28682 2.1469 -1.38893 2.07867Q-1.49105 2.01043 -1.58599 1.93252Q-1.68093 1.8546 -1.76777 1.76776Q-1.85462 1.68091 -1.93253 1.58597Q-2.01045 1.49104 -2.07868 1.38892Q-2.14691 1.2868 -2.20481 1.17848Q-2.2627 1.07017 -2.3097 0.956698Q-2.3567 0.84323 -2.39235 0.725701Q-2.42801 0.608172 -2.45197 0.487715Q-2.47593 0.367258 -2.48796 0.245032Q-2.5 0.122806 -2.5 -1.09651e-05Q-2.5 -0.122828 -2.48796 -0.245053Q-2.47592 -0.367278 -2.45196 -0.487735Q-2.428 -0.608192 -2.39235 -0.72572Q-2.3567 -0.843249 -2.3097 -0.956716Q-2.2627 -1.07018 -2.2048 -1.1785Q-2.1469 -1.28681 -2.07867 -1.38893Q-2.01044 -1.49105 -1.93252 -1.58599Q-1.85461 -1.68093 -1.76776 -1.76777Q-1.68092 -1.85462 -1.58598 -1.93253Q-1.49104 -2.01044 -1.38892 -2.07868Q-1.2868 -2.14691 -1.17849 -2.20481Q-1.07017 -2.2627 -0.956706 -2.3097Q-0.843238 -2.3567 -0.72571 -2.39235Q-0.608181 -2.428 -0.487724 -2.45196Q-0.367268 -2.47592 -0.245042 -2.48796Q-0.122817 -2.5 0 -2.5L232.3 -2.5L232.3 2.5L0 2.5L0 0L-1.09651e-05 2.5ZM234.07 -1.76674Q233.896 -1.94085 233.691 -2.07765Q233.487 -2.21445 233.259 -2.30868Q233.032 -2.4029 232.79 -2.45094Q232.549 -2.49898 232.303 -2.49898L232.303 2.50102Q232.425 2.50102 232.548 2.48898Q232.67 2.47694 232.79 2.45298Q232.911 2.42902 233.028 2.39337Q233.146 2.35772 233.259 2.31072Q233.373 2.26372 233.481 2.20583Q233.589 2.14793 233.691 2.0797Q233.794 2.01147 233.889 1.93355Q233.983 1.85564 234.07 1.76879Q234.157 1.68195 234.235 1.58701Q234.313 1.49207 234.381 1.38995Q234.449 1.28784 234.507 1.17952Q234.565 1.07121 234.612 0.957738Q234.659 0.84427 234.695 0.726741Q234.731 0.609213 234.755 0.488756Q234.779 0.368298 234.791 0.246073Q234.803 0.123847 234.803 0.00102997Q234.803 -0.245198 234.755 -0.486696Q234.706 -0.728193 234.612 -0.955679Q234.518 -1.18317 234.381 -1.3879Q234.244 -1.59263 234.07 -1.76674Z " /><path  id="line" style="stroke:#FFD400; stroke-width:5; stroke-opacity:1; stroke-dasharray:0 0" transform="translate(116.9017146314696 296.9900285100754)  rotate(0 116.1512885076576 0.0005094445423878824)" d="" /><g id="txt" filter="url(#filter_54)"><g opacity="1" transform="translate(98 140.76383495145623)  rotate(0 150 72.5)"><text><tspan x="0" y="139.2" font-size="120" line-height="0" fill="#0D4A1E" opacity="1" font-family="SourceHanSansCN-Heavy" letter-spacing="0"  >0</tspan><tspan x="73.08" y="139.2" font-size="70" line-height="0" fill="#0D4A1E" opacity="1" font-family="SourceHanSansCN-Heavy" letter-spacing="0"  >x</tspan><tspan x="114.94" y="139.2" font-size="120" line-height="0" fill="#0D4A1E" opacity="1" font-family="SourceHanSansCN-Heavy" letter-spacing="0" >FF</tspan></text></g></g><g opacity="1" transform="translate(334 338.76)  rotate(180 26.5 25.5)"><path id="point.2" fill-rule="evenodd" style="fill:#FADD00" transform="translate(38.48212259078623 -0.5278378788848599)  rotate(0 7.046093676763622 7.046093676763622)" opacity="1" d="M7.05,0C3.15,0 0,3.15 0,7.05C0,10.94 3.15,14.09 7.05,14.09C10.94,14.09 14.09,10.94 14.09,7.05C14.09,3.15 10.94,0 7.05,0Z " /><path  id="point.2" style="stroke:#F3EB18; stroke-width:2; stroke-opacity:1; stroke-dasharray:0 0" transform="translate(38.48212259078623 -0.5278378788848599)  rotate(0 7.046093676763622 7.046093676763622)" d="M7.05,0C3.15,0 0,3.15 0,7.05C0,10.94 3.15,14.09 7.05,14.09C10.94,14.09 14.09,10.94 14.09,7.05C14.09,3.15 10.94,0 7.05,0Z " /><path id="point.1" fill-rule="evenodd" style="fill:#FADD00" transform="translate(16.169492614368103 14.738698420769644)  rotate(0 7.046093676763622 7.046093676763622)" opacity="1" d="M7.05,0C3.15,0 0,3.15 0,7.05C0,10.94 3.15,14.09 7.05,14.09C10.94,14.09 14.09,10.94 14.09,7.05C14.09,3.15 10.94,0 7.05,0Z " /><path  id="point.1" style="stroke:#F3EB18; stroke-width:2; stroke-opacity:1; stroke-dasharray:0 0" transform="translate(16.169492614368103 14.738698420769644)  rotate(0 7.046093676763622 7.046093676763622)" d="M7.05,0C3.15,0 0,3.15 0,7.05C0,10.94 3.15,14.09 7.05,14.09C10.94,14.09 14.09,10.94 14.09,7.05C14.09,3.15 10.94,0 7.05,0Z " /><path id="point.0" fill-rule="evenodd" style="fill:#FADD00" transform="translate(-1.27 34.88)  rotate(0 7.046093676763622 7.046093676763622)" opacity="1" d="M7.05,0C3.15,0 0,3.15 0,7.05C0,10.94 3.15,14.09 7.05,14.09C10.94,14.09 14.09,10.94 14.09,7.05C14.09,3.15 10.94,0 7.05,0Z " /><path  id="point.0" style="stroke:#F3EB18; stroke-width:2; stroke-opacity:1; stroke-dasharray:0 0" transform="translate(-1.27 34.88)  rotate(0 7.046093676763622 7.046093676763622)" d="M7.05,0C3.15,0 0,3.15 0,7.05C0,10.94 3.15,14.09 7.05,14.09C10.94,14.09 14.09,10.94 14.09,7.05C14.09,3.15 10.94,0 7.05,0Z " /></g><g opacity="1" transform="translate(75 69.76383495145627)  rotate(0 26.5 25.5)"><path id="point.2" fill-rule="evenodd" style="fill:#FADD00" transform="translate(38.48212259078623 -0.5278378788848599)  rotate(0 7.046093676763622 7.046093676763622)" opacity="1" d="M7.05,0C3.15,0 0,3.15 0,7.05C0,10.94 3.15,14.09 7.05,14.09C10.94,14.09 14.09,10.94 14.09,7.05C14.09,3.15 10.94,0 7.05,0Z " /><path  id="point.2" style="stroke:#F3EB18; stroke-width:2; stroke-opacity:1; stroke-dasharray:0 0" transform="translate(38.48212259078623 -0.5278378788848599)  rotate(0 7.046093676763622 7.046093676763622)" d="M7.05,0C3.15,0 0,3.15 0,7.05C0,10.94 3.15,14.09 7.05,14.09C10.94,14.09 14.09,10.94 14.09,7.05C14.09,3.15 10.94,0 7.05,0Z " /><path id="point.1" fill-rule="evenodd" style="fill:#FADD00" transform="translate(16.169492614368103 14.738698420769644)  rotate(0 7.046093676763622 7.046093676763622)" opacity="1" d="M7.05,0C3.15,0 0,3.15 0,7.05C0,10.94 3.15,14.09 7.05,14.09C10.94,14.09 14.09,10.94 14.09,7.05C14.09,3.15 10.94,0 7.05,0Z " /><path  id="point.1" style="stroke:#F3EB18; stroke-width:2; stroke-opacity:1; stroke-dasharray:0 0" transform="translate(16.169492614368103 14.738698420769644)  rotate(0 7.046093676763622 7.046093676763622)" d="M7.05,0C3.15,0 0,3.15 0,7.05C0,10.94 3.15,14.09 7.05,14.09C10.94,14.09 14.09,10.94 14.09,7.05C14.09,3.15 10.94,0 7.05,0Z " /><path id="point.0" fill-rule="evenodd" style="fill:#FADD00" transform="translate(-1.27 34.88)  rotate(0 7.046093676763622 7.046093676763622)" opacity="1" d="M7.05,0C3.15,0 0,3.15 0,7.05C0,10.94 3.15,14.09 7.05,14.09C10.94,14.09 14.09,10.94 14.09,7.05C14.09,3.15 10.94,0 7.05,0Z " /><path  id="point.0" style="stroke:#F3EB18; stroke-width:2; stroke-opacity:1; stroke-dasharray:0 0" transform="translate(-1.27 34.88)  rotate(0 7.046093676763622 7.046093676763622)" d="M7.05,0C3.15,0 0,3.15 0,7.05C0,10.94 3.15,14.09 7.05,14.09C10.94,14.09 14.09,10.94 14.09,7.05C14.09,3.15 10.94,0 7.05,0Z " /></g></g></g></g></svg>